<svg width="149" height="25" viewBox="0 0 149 25" fill="none" xmlns="http://www.w3.org/2000/svg">
<path d="M113.539 24.8624H122.308V15.9301H125.244L136.055 24.8607H148.681L133.555 12.5666L147.62 0H135.222L125.331 8.74296H121.997V0.00170129H113.541V24.8624H113.539ZM15.4416 0.00170129C18.7773 0.00170129 22.113 0.00170129 25.4488 0.00170129C26.9456 0.00170129 29.7622 1.35955 30.712 4.28026C31.4882 6.73737 30.941 10.7816 28.8418 12.2593C30.3664 12.8946 31.4014 15.2946 31.5455 17.7795V18.7623C31.5152 19.1961 31.4604 19.627 31.372 20.0316C30.8233 22.7787 28.6683 24.859 26.9441 24.859C23.0891 24.859 19.2637 24.859 15.4401 24.859C10.3766 24.859 5.31654 24.859 0.28257 24.859C0.258381 16.5866 0.258391 8.29327 0.22876 0C5.29225 0.00170079 10.3816 0.00170129 15.4416 0.00170129ZM15.4416 17.9496H21.6807C22.4291 17.9496 23.0594 17.3419 23.0594 16.6212C23.0594 15.9023 22.4274 15.3189 21.6807 15.3189H8.19543V17.9496H15.4416ZM15.4416 9.01908H21.3369C22.0887 9.01908 22.6913 8.40937 22.6913 7.68726C22.6913 6.96488 22.0887 6.35881 21.3369 6.35881H8.19717V9.01732H15.4416V9.01908ZM73.189 0.00170129V24.8607H82.0727V8.16475L94.7193 24.8573H108.418V0.00170129H99.6474V17.3696L86.7646 0.00170129H73.189ZM58.259 0.00170129L71.6505 24.8607H62.3623L60.0528 20.7297H44.6071L42.2733 24.8607H32.5561L46.3192 0.00170129H58.259ZM56.4809 14.3517L52.3099 7.1038L52.2797 7.04483L48.1678 14.3517L56.4809 14.3517Z" fill="#E6E6E6"/>
</svg>
